# xmcd
#
# Track frame offsets: 
#        150
#        17025
#        32785
#        45143
#        62860
#        79010
#        103248
#        123915
#        136932
#        150406
#        166111
#        185794
#        204939
#        219989
#        246389
#        254038
#
# Disc length: 3589 seconds
#
# Revision: 0
# Processed by: cddbd v1.5.2PL0 Copyright (c) Steve Scherf et al.
# Submitted via: ExactAudioCopy v1.0b3
#
DISCID=d70e0310
DTITLE=52 musicians - The Best of Cold Spring Tavern
DYEAR=2003
DGENRE=Country
TTITLE0=Old Irish Air
TTITLE1=Perfect Woman
TTITLE2=Saturday Night
TTITLE3=Mr. Right Now
TTITLE4=Here and Gone
TTITLE5=Long Way Home
TTITLE6=Nightingale
TTITLE7=Trophy Girl
TTITLE8=He Taught Me Well
TTITLE9=My Room
TTITLE10=Devil on the Mountain
TTITLE11=We All Move On
TTITLE12=Drive Thru Lives
TTITLE13=One Fine Day
TTITLE14=Right Where I Want to Be
TTITLE15=Se Bag Se Mor
EXTD=
EXTT0=
EXTT1=
EXTT2=
EXTT3=
EXTT4=
EXTT5=
EXTT6=
EXTT7=
EXTT8=
EXTT9=
EXTT10=
EXTT11=
EXTT12=
EXTT13=
EXTT14=
EXTT15=
PLAYORDER=
